# xmcd
#
# Track frame offsets:
#   150
#   6792
#   13491
#   18235
#   21223
#   24552
#   29139
#   31553
#   35560
#   39638
#   44292
#   49193
#   53555
#   58889
#   63751
#   67574
#   70495
#   76883
#   81539
#   86406
#   92558
#   97380
#   100962
#   108398
#   116406
#   121774
#   128718
#   135578
#   141072
#   145676
#   149470
#   156650
#   161820
#   169920
#   179656
#   187455
#   193609
#   198774
#   205702
#   211673
#   217571
#   226261
#   241582
#   249164
#   260005
#   263803
#   273251
#   281094
#   284950
#   290577
#   295383
#   305450
#   312157
#   317655
#
# Disc length: 4420 seconds
#
# Revision: 0
# Processed by: cddbd v1.5.2PL0 Copyright (c) Steve Scherf et al.
# Submitted via: uFREEDB ActiveX Control 1.5
#
DISCID=1e114236
DTITLE=Italianão - Italianão
DYEAR=2016
DGENRE=Latin
TTITLE0=1
TTITLE1=2
TTITLE2=3
TTITLE3=4
TTITLE4=5
TTITLE5=6
TTITLE6=7
TTITLE7=8
TTITLE8=9
TTITLE9=10
TTITLE10=11
TTITLE11=12
TTITLE12=13
TTITLE13=14
TTITLE14=15
TTITLE15=16
TTITLE16=17
TTITLE17=18
TTITLE18=19
TTITLE19=20
TTITLE20=21
TTITLE21=22
TTITLE22=23
TTITLE23=24
TTITLE24=25
TTITLE25=26
TTITLE26=27
TTITLE27=28
TTITLE28=29
TTITLE29=30
TTITLE30=31
TTITLE31=32
TTITLE32=33
TTITLE33=34
TTITLE34=35
TTITLE35=36
TTITLE36=37
TTITLE37=38
TTITLE38=39
TTITLE39=40
TTITLE40=41
TTITLE41=42
TTITLE42=43
TTITLE43=44
TTITLE44=45
TTITLE45=46
TTITLE46=47
TTITLE47=48
TTITLE48=49
TTITLE49=50
TTITLE50=51
TTITLE51=52
TTITLE52=53
TTITLE53=54
EXTD=
EXTT0=
EXTT1=
EXTT2=
EXTT3=
EXTT4=
EXTT5=
EXTT6=
EXTT7=
EXTT8=
EXTT9=
EXTT10=
EXTT11=
EXTT12=
EXTT13=
EXTT14=
EXTT15=
EXTT16=
EXTT17=
EXTT18=
EXTT19=
EXTT20=
EXTT21=
EXTT22=
EXTT23=
EXTT24=
EXTT25=
EXTT26=
EXTT27=
EXTT28=
EXTT29=
EXTT30=
EXTT31=
EXTT32=
EXTT33=
EXTT34=
EXTT35=
EXTT36=
EXTT37=
EXTT38=
EXTT39=
EXTT40=
EXTT41=
EXTT42=
EXTT43=
EXTT44=
EXTT45=
EXTT46=
EXTT47=
EXTT48=
EXTT49=
EXTT50=
EXTT51=
EXTT52=
EXTT53=
PLAYORDER=
